<svg xmlns="http://www.w3.org/2000/svg" width="32" height="32" viewBox="0 0 32 32">

    <rect x="1" y="4" width="30" height="24" rx="4" ry="4" fill="#E30A17"/>

    <path d="M27,4H5c-2.209,0-4,1.791-4,4V24c0,2.209,1.791,4,4,4H27c2.209,0,4-1.791,4-4V8c0-2.209-1.791-4-4-4Zm3,20c0,1.654-1.346,3-3,3H5c-1.654,0-3-1.346-3-3V8c0-1.654,1.346-3,3-3H27c1.654,0,3,1.346,3,3V24Z" opacity=".15"/>
    <path d="M27,5H5c-1.657,0-3,1.343-3,3v1c0-1.657,1.343-3,3-3H27c1.657,0,3,1.343,3,3v-1c0-1.657-1.343-3-3-3Z" fill="#fff" opacity=".2"/>

    <circle cx="12" cy="16" r="5.2" fill="white"/>
    <circle cx="13.8" cy="16" r="4" fill="#E30A17"/>

    <g transform="translate(19.5,16) rotate(-18)">
        <polygon fill="white" points="
      0,-2.5
      0.73,-0.78
      2.35,-0.78
      1.03,0.3
      1.47,2
      0,1.1
      -1.47,2
      -1.03,0.3
      -2.35,-0.78
      -0.73,-0.78"/>
    </g>
</svg>
